HIERARCHY
ROOT Hips
{
	OFFSET 0.000000 83.214638 0.000000
	CHANNELS 6 Xposition Yposition Zposition Xrotation Yrotation Zrotation
	JOINT Pelvis
	{
		OFFSET 0.000000 0.000000 0.000000
		CHANNELS 3 Xrotation Yrotation Zrotation
		JOINT LeftUpLeg
		{
			OFFSET 8.479700 -4.795502 -0.379100
			CHANNELS 3 Xrotation Yrotation Zrotation
			JOINT LeftLeg
			{
				OFFSET 0.024144 -32.555107 0.112900
				CHANNELS 3 Xrotation Yrotation Zrotation
				JOINT LeftFoot
				{
					OFFSET -0.024144 -32.638630 -3.012600
					CHANNELS 3 Xrotation Yrotation Zrotation
					JOINT LeftToeBase
					{
						OFFSET 0.970200 -13.225400 11.864200
						CHANNELS 3 Xrotation Yrotation Zrotation
						End Site
						{
							OFFSET 0.000000 12.319262 0.000000
						}
					}
					JOINT LFootTongue
					{
						OFFSET 1.142400 -1.059800 6.665200
						CHANNELS 3 Xrotation Yrotation Zrotation
						End Site
						{
							OFFSET 0.000000 12.319262 0.000000
						}
					}
				}
				JOINT LeftPantLeg
				{
					OFFSET 0.918482 -16.533964 -2.284700
					CHANNELS 3 Xrotation Yrotation Zrotation
					End Site
					{
						OFFSET 0.350399 24.744368 0.000000
					}
				}
			}
		}
		JOINT RightUpLeg
		{
			OFFSET -8.479700 -4.795502 -0.379100
			CHANNELS 3 Xrotation Yrotation Zrotation
			JOINT RightLeg
			{
				OFFSET -0.023144 -32.555092 0.112900
				CHANNELS 3 Xrotation Yrotation Zrotation
				JOINT RightFoot
				{
					OFFSET 0.023144 -32.638641 -3.012700
					CHANNELS 3 Xrotation Yrotation Zrotation
					JOINT RightToeBase
					{
						OFFSET -0.970200 -13.225400 11.864200
						CHANNELS 3 Xrotation Yrotation Zrotation
						End Site
						{
							OFFSET 0.000000 12.319244 0.000000
						}
					}
					JOINT RFootTongue
					{
						OFFSET -1.142200 -1.059800 6.665200
						CHANNELS 3 Xrotation Yrotation Zrotation
						End Site
						{
							OFFSET 0.000000 12.319243 0.000000
						}
					}
				}
				JOINT RightPantLeg
				{
					OFFSET -0.919482 -16.533978 -2.284800
					CHANNELS 3 Xrotation Yrotation Zrotation
					End Site
					{
						OFFSET -0.350400 24.744419 0.000000
					}
				}
			}
		}
	}
	JOINT Spine
	{
		OFFSET 0.000000 7.722000 1.166200
		CHANNELS 3 Xrotation Yrotation Zrotation
		JOINT Spine1
		{
			OFFSET 0.000000 12.024101 0.248800
			CHANNELS 3 Xrotation Yrotation Zrotation
			JOINT Spine2
			{
				OFFSET 0.000000 11.502998 -0.491200
				CHANNELS 3 Xrotation Yrotation Zrotation
				JOINT Neck
				{
					OFFSET 0.000000 18.430702 -3.123100
					CHANNELS 3 Xrotation Yrotation Zrotation
					JOINT Head
					{
						OFFSET 0.000000 9.051102 1.034000
						CHANNELS 3 Xrotation Yrotation Zrotation
						JOINT HairB
						{
							OFFSET 0.208400 24.786102 24.822300
							CHANNELS 3 Xrotation Yrotation Zrotation
							End Site
							{
								OFFSET 0.000000 32.263779 0.000000
							}
						}
						JOINT HairA
						{
							OFFSET -7.081100 24.428299 23.196600
							CHANNELS 3 Xrotation Yrotation Zrotation
							End Site
							{
								OFFSET 0.000000 32.263779 0.000000
							}
						}
						JOINT Hat
						{
							OFFSET 16.728800 15.048294 -15.439601
							CHANNELS 3 Xrotation Yrotation Zrotation
							End Site
							{
								OFFSET 0.000000 32.263779 0.000000
							}
						}
					}
				}
				JOINT LeftShoulder
				{
					OFFSET 6.197800 13.665199 -4.064700
					CHANNELS 3 Xrotation Yrotation Zrotation
					JOINT LeftArm
					{
						OFFSET 7.778100 -0.187103 -1.709300
						CHANNELS 3 Xrotation Yrotation Zrotation
						JOINT LeftForeArm
						{
							OFFSET 22.049376 0.000000 0.000000
							CHANNELS 3 Xrotation Yrotation Zrotation
							JOINT LeftHand
							{
								OFFSET 23.009392 0.000000 0.000000
								CHANNELS 3 Xrotation Yrotation Zrotation
								JOINT LeftHandThumb1
								{
									OFFSET 3.507191 -2.063065 3.133727
									CHANNELS 3 Xrotation Yrotation Zrotation
									JOINT LeftHandThumb2
									{
										OFFSET 3.101337 -1.790558 1.790558
										CHANNELS 3 Xrotation Yrotation Zrotation
										JOINT LeftHandThumb3
										{
											OFFSET 3.058640 -1.765907 1.765906
											CHANNELS 3 Xrotation Yrotation Zrotation
											End Site
											{
												OFFSET -0.415260 3.926476 -0.049563
											}
										}
									}
								}
								JOINT LeftHandIndex1
								{
									OFFSET 11.334419 -0.901459 3.706815
									CHANNELS 3 Xrotation Yrotation Zrotation
									JOINT LeftHandIndex2
									{
										OFFSET 3.283112 0.000000 0.000000
										CHANNELS 3 Xrotation Yrotation Zrotation
										JOINT LeftHandIndex3
										{
											OFFSET 3.323853 0.000000 0.000000
											CHANNELS 3 Xrotation Yrotation Zrotation
											End Site
											{
												OFFSET -1.135597 3.097809 0.402452
											}
										}
									}
								}
								JOINT LeftHandMiddle1
								{
									OFFSET 11.335861 0.000000 0.000000
									CHANNELS 3 Xrotation Yrotation Zrotation
									JOINT LeftHandMiddle2
									{
										OFFSET 3.410492 0.000000 0.000000
										CHANNELS 3 Xrotation Yrotation Zrotation
										JOINT LeftHandMiddle3
										{
											OFFSET 3.312172 0.000000 0.000000
											CHANNELS 3 Xrotation Yrotation Zrotation
											End Site
											{
												OFFSET -1.150200 3.080154 0.400270
											}
										}
									}
								}
								JOINT LeftHandRing1
								{
									OFFSET 11.514786 -0.013176 -3.003090
									CHANNELS 3 Xrotation Yrotation Zrotation
									JOINT LeftHandRing2
									{
										OFFSET 3.053307 0.000000 0.000000
										CHANNELS 3 Xrotation Yrotation Zrotation
										JOINT LeftHandRing3
										{
											OFFSET 3.295807 0.000000 0.000000
											CHANNELS 3 Xrotation Yrotation Zrotation
											End Site
											{
												OFFSET -1.281006 3.013344 0.375733
											}
										}
									}
								}
								JOINT LeftHandPinky1
								{
									OFFSET 10.518692 -0.960396 -5.730441
									CHANNELS 3 Xrotation Yrotation Zrotation
									JOINT LeftHandPinky2
									{
										OFFSET 2.861649 0.000000 0.000000
										CHANNELS 3 Xrotation Yrotation Zrotation
										JOINT LeftHandPinky3
										{
											OFFSET 2.863380 0.000000 0.000000
											CHANNELS 3 Xrotation Yrotation Zrotation
											End Site
											{
												OFFSET -0.843597 2.711159 0.369971
											}
										}
									}
								}
							}
							JOINT LSleeve
							{
								OFFSET 6.676277 -0.344902 -1.011730
								CHANNELS 3 Xrotation Yrotation Zrotation
								End Site
								{
									OFFSET 0.000000 14.885353 0.000000
								}
							}
						}
					}
				}
				JOINT RightShoulder
				{
					OFFSET -6.197800 13.665199 -4.064700
					CHANNELS 3 Xrotation Yrotation Zrotation
					JOINT RightArm
					{
						OFFSET -7.778100 -0.187103 -1.709300
						CHANNELS 3 Xrotation Yrotation Zrotation
						JOINT RightForeArm
						{
							OFFSET -22.049376 0.000000 0.000000
							CHANNELS 3 Xrotation Yrotation Zrotation
							JOINT RightHand
							{
								OFFSET -23.009392 0.000000 0.000000
								CHANNELS 3 Xrotation Yrotation Zrotation
								JOINT RightHandThumb1
								{
									OFFSET -3.507191 -2.063065 3.133727
									CHANNELS 3 Xrotation Yrotation Zrotation
									JOINT RightHandThumb2
									{
										OFFSET -3.101337 -1.790558 1.790558
										CHANNELS 3 Xrotation Yrotation Zrotation
										JOINT RightHandThumb3
										{
											OFFSET -3.058640 -1.765907 1.765906
											CHANNELS 3 Xrotation Yrotation Zrotation
											End Site
											{
												OFFSET 0.415260 3.926476 -0.049563
											}
										}
									}
								}
								JOINT RightHandIndex1
								{
									OFFSET -11.334419 -0.901459 3.706815
									CHANNELS 3 Xrotation Yrotation Zrotation
									JOINT RightHandIndex2
									{
										OFFSET -3.283112 0.000000 0.000000
										CHANNELS 3 Xrotation Yrotation Zrotation
										JOINT RightHandIndex3
										{
											OFFSET -3.323853 0.000000 0.000000
											CHANNELS 3 Xrotation Yrotation Zrotation
											End Site
											{
												OFFSET 1.135597 3.097809 0.402452
											}
										}
									}
								}
								JOINT RightHandMiddle1
								{
									OFFSET -11.335861 0.000000 0.000000
									CHANNELS 3 Xrotation Yrotation Zrotation
									JOINT RightHandMiddle2
									{
										OFFSET -3.410492 0.000000 0.000000
										CHANNELS 3 Xrotation Yrotation Zrotation
										JOINT RightHandMiddle3
										{
											OFFSET -3.312172 0.000000 0.000000
											CHANNELS 3 Xrotation Yrotation Zrotation
											End Site
											{
												OFFSET 1.150200 3.080154 0.400270
											}
										}
									}
								}
								JOINT RightHandRing1
								{
									OFFSET -11.514786 -0.013176 -3.003090
									CHANNELS 3 Xrotation Yrotation Zrotation
									JOINT RightHandRing2
									{
										OFFSET -3.053307 0.000000 0.000000
										CHANNELS 3 Xrotation Yrotation Zrotation
										JOINT RightHandRing3
										{
											OFFSET -3.295807 0.000000 0.000000
											CHANNELS 3 Xrotation Yrotation Zrotation
											End Site
											{
												OFFSET 1.281006 3.013344 0.375733
											}
										}
									}
								}
								JOINT RightHandPinky1
								{
									OFFSET -10.518692 -0.960396 -5.730441
									CHANNELS 3 Xrotation Yrotation Zrotation
									JOINT RightHandPinky2
									{
										OFFSET -2.861649 0.000000 0.000000
										CHANNELS 3 Xrotation Yrotation Zrotation
										JOINT RightHandPinky3
										{
											OFFSET -2.863380 0.000000 0.000000
											CHANNELS 3 Xrotation Yrotation Zrotation
											End Site
											{
												OFFSET 0.843597 2.711159 0.369971
											}
										}
									}
								}
							}
							JOINT RSleeve
							{
								OFFSET -6.676277 -0.344902 -1.011730
								CHANNELS 3 Xrotation Yrotation Zrotation
								End Site
								{
									OFFSET 0.000000 14.885353 0.000000
								}
							}
						}
					}
				}
				JOINT Backpack
				{
					OFFSET 0.000000 -2.471497 36.677502
					CHANNELS 3 Xrotation Yrotation Zrotation
					End Site
					{
						OFFSET 0.000000 20.427315 0.000000
					}
				}
				JOINT Hood
				{
					OFFSET 0.000000 18.754097 -10.431000
					CHANNELS 3 Xrotation Yrotation Zrotation
					JOINT Hood1
					{
						OFFSET 0.000000 -5.011002 -7.685901
						CHANNELS 3 Xrotation Yrotation Zrotation
						End Site
						{
							OFFSET 0.000000 9.175140 0.000000
						}
					}
				}
				JOINT LHoodieString
				{
					OFFSET 5.250500 16.397697 3.089900
					CHANNELS 3 Xrotation Yrotation Zrotation
					JOINT LHoodieString1
					{
						OFFSET 0.257700 -6.364304 3.694600
						CHANNELS 3 Xrotation Yrotation Zrotation
						JOINT LHoodieString2
						{
							OFFSET 0.000000 -9.643799 2.679100
							CHANNELS 3 Xrotation Yrotation Zrotation
							End Site
							{
								OFFSET 0.000000 10.009018 0.000000
							}
						}
					}
				}
				JOINT RHoodieString
				{
					OFFSET -5.250500 16.397697 3.089900
					CHANNELS 3 Xrotation Yrotation Zrotation
					JOINT RHoodieString1
					{
						OFFSET -0.257700 -6.364304 3.694600
						CHANNELS 3 Xrotation Yrotation Zrotation
						JOINT RHoodieString2
						{
							OFFSET 0.000000 -9.643799 2.679100
							CHANNELS 3 Xrotation Yrotation Zrotation
							End Site
							{
								OFFSET 0.000000 10.009018 0.000000
							}
						}
					}
				}
			}
			JOINT LBackpack_Strap
			{
				OFFSET 15.223200 -7.719803 -6.610900
				CHANNELS 3 Xrotation Yrotation Zrotation
				End Site
				{
					OFFSET 0.000000 16.040596 0.000000
				}
			}
			JOINT RBackpack_Strap
			{
				OFFSET -15.223000 -7.719803 -6.610900
				CHANNELS 3 Xrotation Yrotation Zrotation
				End Site
				{
					OFFSET 0.000000 16.040596 0.000000
				}
			}
		}
	}
	JOINT BoyFacialAnim_Joint
	{
		OFFSET 1.000000 -82.208099 -1.550900
		CHANNELS 3 Xrotation Yrotation Zrotation
		End Site
		{
			OFFSET 0.000000 30.012791 0.000000
		}
	}
}
MOTION
Frames: 4
Frame Time: 0.016667
-0.032682 47.624008 -15.163372 35.852687 -0.153746 2.351747 0.000001 -0.000000 -0.000000 -96.555864 -6.524585 31.878258 121.389441 4.803557 -0.133091 -32.553918 -16.632212 -19.903962 -0.000001 -0.000002 0.000000 -0.000001 -0.000002 0.000001 0.000001 -0.000001 0.000003 -104.082678 -9.362803 -11.403519 127.145938 6.100844 -1.177813 -28.513198 3.011261 -14.289426 -0.000001 -0.000000 0.000000 -0.000001 -0.000000 0.000000 0.000000 0.000000 0.000001 11.084827 0.241740 -2.248479 22.176803 0.436128 -4.312042 22.176794 0.436130 -4.312044 -24.273823 -2.101650 -0.458651 -32.969890 -5.781657 3.191218 0.000002 0.000000 -0.000000 0.000002 0.000000 -0.000000 0.000002 0.000000 -0.000000 0.640950 -3.294367 -0.953792 -15.835087 -34.689967 -16.373893 4.580858 -102.085298 2.759597 44.263273 29.883591 20.699390 11.125191 -10.607985 5.635057 13.047555 13.035007 -0.568277 -0.000001 0.000000 -0.000002 2.762756 -9.722657 -4.298518 -0.734986 0.012648 -24.937161 0.000001 -0.000001 -0.000007 0.691164 0.688888 -10.668328 -1.829428 -2.017373 -30.196027 0.000001 -0.000001 -0.000000 0.170531 9.516309 -23.800793 -0.026554 -3.190994 -36.374801 0.000000 0.000001 -0.000000 0.671187 29.060833 -33.488151 0.187216 -6.380939 -42.445562 -0.000000 0.000001 -0.000004 -0.000000 -0.000003 -0.000001 5.833063 29.728012 10.839902 -38.904361 17.802014 21.911286 10.180164 60.700335 -18.967891 39.144900 -25.749552 -58.258099 -28.903096 10.876020 -5.700023 1.644012 -0.336624 -1.627247 -0.000000 0.000000 0.000001 -1.509185 6.134594 4.269184 0.284811 -2.247834 5.347509 -0.000003 0.000000 0.000002 -0.686666 -1.935915 4.591087 -0.718854 0.493043 15.506157 -0.000000 0.000001 0.000003 2.037201 -12.730986 11.026377 0.036379 2.329724 17.761663 0.000001 -0.000001 0.000000 6.528039 -28.103838 17.554867 -0.488538 6.557317 19.904211 -0.000001 -0.000000 0.000002 0.000000 0.000000 -0.000001 0.000000 -0.000000 0.000000 0.000000 -0.000000 0.000000 0.000000 -0.000000 0.000000 0.000000 -0.000000 0.000000 0.000000 -0.000000 0.000001 0.000000 0.000000 0.000000 0.000000 -0.000000 0.000000 0.000000 -0.000000 0.000001 0.000000 0.000000 0.000000 -0.000001 0.000000 -0.000000 -0.000001 0.000000 -0.000000 0.000001 -0.000000 -0.000000 
-0.234951 46.421280 -15.041821 37.246579 1.512141 2.194583 0.000001 0.000000 0.000000 -93.673278 -7.035259 34.460954 121.811083 3.259835 -0.211526 -36.270835 -15.231242 -23.413231 0.000001 0.000001 -0.000000 0.000001 0.000001 0.000000 -0.000000 0.000000 -0.000001 -106.640645 -7.757594 -10.441909 129.571530 4.311299 -0.781745 -28.895139 2.307677 -12.389261 0.000000 -0.000000 0.000000 0.000000 -0.000000 0.000000 -0.000001 0.000001 -0.000000 10.523190 0.058472 -2.151648 21.050933 0.321395 -3.994274 21.050940 0.321396 -3.994275 -21.738769 -2.217310 -0.825594 -34.315656 -6.604939 3.109564 -0.000001 0.000000 -0.000000 -0.000001 0.000000 -0.000000 -0.000001 0.000000 -0.000000 0.343001 -2.949975 -1.792631 -16.403963 -37.051263 -18.318924 2.482807 -100.497552 0.139137 47.566400 27.306041 17.670582 11.188566 -11.111365 6.012798 11.620618 14.042165 -0.106123 -0.000001 0.000000 0.000002 3.446696 -9.799957 -1.845120 -0.760098 -0.016557 -25.262918 -0.000001 -0.000000 -0.000005 0.747687 0.207630 -8.580259 -1.876517 -2.032497 -30.535150 -0.000001 -0.000000 0.000004 0.085849 9.613125 -22.173794 -0.014839 -3.214899 -36.633812 -0.000000 0.000002 -0.000000 -0.053500 29.550492 -31.903400 0.218726 -6.412732 -42.751506 0.000000 0.000001 -0.000000 0.000000 -0.000000 0.000003 5.774367 29.321374 12.382902 -39.766109 19.774415 22.445578 8.302435 57.691650 -16.019534 40.345234 -23.597513 -59.666251 -31.298164 12.346685 -7.537891 1.803068 -0.055165 -1.277175 -0.000001 0.000000 -0.000001 -1.571558 6.221608 2.837442 0.274707 -2.142571 6.406120 -0.000001 -0.000000 -0.000000 -0.726565 -1.842133 4.353597 -0.734671 0.515563 15.825671 0.000001 -0.000001 0.000001 2.017735 -12.871192 10.562710 0.036065 2.354651 18.021454 -0.000002 0.000001 0.000001 6.575692 -28.588173 17.176309 -0.497815 6.579887 20.205332 0.000000 -0.000000 0.000000 -0.000001 -0.000001 -0.000001 -0.000000 -0.000000 0.000001 -0.000000 -0.000000 0.000001 -0.000000 -0.000000 0.000001 -0.000000 -0.000000 0.000001 -0.000000 -0.000000 0.000001 0.000000 -0.000000 -0.000000 -0.000000 -0.000000 0.000001 -0.000000 -0.000000 0.000001 0.000000 -0.000000 -0.000000 -0.000001 0.000000 -0.000000 -0.000001 0.000000 -0.000000 0.000001 0.000000 0.000000 
-0.400359 45.325432 -14.965126 38.509279 2.957874 1.984839 -0.000001 -0.000000 -0.000000 -92.638197 -7.726196 36.164243 122.276041 2.029360 -0.311684 -38.354360 -14.860497 -25.597782 -0.000000 0.000000 -0.000001 -0.000000 0.000000 -0.000001 0.000001 -0.000002 0.000001 -108.949024 -6.639755 -9.645317 131.733749 2.782213 -0.556541 -29.414565 1.645835 -10.807573 -0.000000 0.000000 0.000000 -0.000000 0.000000 0.000000 0.000002 0.000001 0.000000 9.882244 -0.059973 -1.988665 19.767512 0.228245 -3.621572 19.767496 0.228247 -3.621572 -19.301421 -2.327294 -1.169200 -35.559724 -7.352560 3.025417 0.000003 -0.000000 -0.000000 0.000003 -0.000000 -0.000000 0.000003 -0.000000 -0.000000 0.020294 -2.572767 -2.855809 -17.018330 -39.190498 -20.988087 0.982972 -97.925126 -1.973188 50.723474 23.806836 15.248148 11.263549 -11.681001 6.443940 9.567428 15.252091 0.466257 -0.000002 -0.000002 0.000001 4.242347 -9.839364 0.880823 -0.788970 -0.049298 -25.632406 -0.000000 0.000001 -0.000005 0.850839 -0.260220 -6.350890 -1.929578 -2.048778 -30.911961 -0.000001 -0.000000 0.000004 0.007510 9.769574 -20.426808 -0.002232 -3.242817 -36.940142 -0.000001 -0.000000 -0.000001 -0.979598 29.990428 -30.003949 0.254555 -6.449613 -43.107916 -0.000001 0.000000 -0.000000 -0.000001 0.000001 -0.000003 5.824608 28.867795 13.884143 -39.853105 20.536069 22.693080 6.574772 55.607709 -13.152812 41.209974 -21.195286 -61.261169 -33.487031 13.898113 -9.125759 2.049873 0.409616 -0.803318 -0.000003 -0.000001 0.000001 -1.697781 6.426627 1.495232 0.265363 -2.026623 7.570308 -0.000001 -0.000000 0.000005 -0.774796 -1.732076 4.150761 -0.747657 0.537074 16.125684 -0.000000 0.000000 0.000002 1.998272 -12.963679 10.222179 0.036659 2.380269 18.283465 -0.000000 -0.000001 0.000000 6.654068 -29.138495 16.814435 -0.510112 6.601639 20.511405 0.000001 0.000001 0.000002 -0.000001 -0.000001 -0.000001 0.000000 0.000000 -0.000000 0.000000 0.000000 -0.000000 0.000000 0.000000 -0.000000 0.000000 0.000000 -0.000000 0.000000 0.000000 -0.000000 0.000000 0.000000 -0.000000 0.000000 0.000000 -0.000000 0.000000 0.000000 -0.000000 0.000000 0.000000 -0.000000 -0.000001 0.000000 -0.000000 -0.000001 0.000000 -0.000000 -0.000001 -0.000000 -0.000000 
-0.514695 44.356632 -14.974182 39.624557 4.175701 1.750245 -0.000001 0.000001 0.000000 -94.618501 -8.777422 36.316211 123.587055 1.791019 -0.375836 -38.637444 -15.969865 -25.966718 0.000001 0.000001 -0.000000 0.000001 0.000001 -0.000001 0.000001 -0.000004 0.000002 -111.018147 -6.062592 -9.354377 133.573310 1.574293 -0.483109 -30.254654 0.975207 -9.641662 0.000004 -0.000000 0.000000 0.000004 -0.000000 0.000000 -0.000001 -0.000001 -0.000000 9.203409 -0.129077 -1.763351 18.408709 0.142228 -3.175027 18.408709 0.142229 -3.175026 -17.035894 -2.424130 -1.481490 -36.678754 -8.013697 2.944161 0.000002 0.000000 -0.000000 0.000002 0.000000 -0.000000 0.000002 0.000000 -0.000000 -0.284222 -2.135470 -4.160780 -17.677332 -40.741911 -24.178919 -0.080548 -94.687896 -3.562056 53.370180 19.581288 13.653755 11.343354 -12.273105 6.900007 6.708312 16.475101 1.460193 -0.000000 -0.000003 0.000000 5.234336 -9.820466 4.263366 -0.819166 -0.080970 -26.000242 -0.000000 0.000002 -0.000001 1.074210 -0.480982 -4.034317 -1.984933 -2.064387 -31.305127 -0.000003 -0.000001 -0.000002 -0.066288 10.084483 -18.359064 0.011142 -3.271448 -37.253402 0.000000 0.000000 -0.000002 -2.129027 30.421355 -27.650993 0.291454 -6.488811 -43.471258 0.000000 0.000000 0.000002 0.000000 0.000001 0.000000 5.973606 28.508233 15.261351 -39.460561 20.823672 22.407590 5.371280 54.315652 -10.616655 41.903938 -19.438146 -62.692756 -34.145615 14.695647 -8.490565 2.362732 0.806160 -0.204917 -0.000002 0.000001 -0.000000 -1.881064 6.920220 0.918375 0.258629 -1.909421 8.741233 -0.000000 -0.000001 0.000003 -0.827272 -1.607684 4.041267 -0.757720 0.556769 16.394293 0.000002 0.000000 -0.000002 1.986225 -12.991880 10.062157 0.038642 2.401856 18.499120 -0.000002 -0.000002 0.000000 6.755851 -29.733514 16.485449 -0.523451 6.614802 20.722051 0.000001 -0.000002 -0.000002 0.000001 -0.000000 -0.000001 0.000000 -0.000000 0.000001 0.000000 -0.000000 0.000001 0.000000 -0.000000 0.000001 0.000000 -0.000000 0.000001 0.000000 -0.000000 0.000001 0.000000 -0.000000 0.000001 0.000000 -0.000000 0.000001 0.000000 -0.000000 0.000001 0.000000 -0.000000 0.000001 -0.000000 -0.000000 -0.000000 -0.000000 -0.000000 -0.000000 -0.000001 0.000001 0.000000 
